<?xml version="1.0" standalone="no"?>
<!DOCTYPE svg PUBLIC "-//W3C//DTD SVG 20010904//EN"
 "http://www.w3.org/TR/2001/REC-SVG-20010904/DTD/svg10.dtd">
<svg version="1.0" xmlns="http://www.w3.org/2000/svg"
 width="2000.000000pt" height="2000.000000pt" viewBox="0 0 2000.000000 2000.000000"
 preserveAspectRatio="xMidYMid meet">

<g transform="translate(0.000000,2000.000000) scale(0.100000,-0.100000)"
fill="#2563eb" stroke="#ffffff" stroke-width="200">
<path d="M4079 17124 c-637 -137 -1230 -1200 -1619 -2904 -536 -2350 -607
-5523 -180 -8105 327 -1981 896 -3338 1565 -3737 77 -46 121 -64 216 -88 77
-20 136 -20 6199 -20 5481 0 6129 2 6184 15 362 91 683 428 987 1035 901 1803
1301 5420 968 8765 -266 2677 -992 4659 -1831 5000 -146 59 356 55 -6315 54
-5244 -1 -6117 -3 -6174 -15z m3143 -4617 l3 -2163 1644 2163 1645 2163 1419
0 1419 0 -42 -52 c-528 -663 -3785 -4792 -3785 -4798 0 -5 891 -1139 1980
-2521 1089 -1381 1981 -2516 1983 -2520 2 -5 -642 -9 -1470 -9 l-1473 1 -1660
2180 -1660 2180 -3 -2180 -2 -2181 -1208 2 -1207 3 -3 4948 -2 4947 1210 0
1210 0 2 -2163z m8673 -5611 c214 -51 356 -123 520 -262 113 -96 229 -258 279
-393 136 -361 80 -752 -148 -1037 -198 -248 -471 -386 -818 -414 -459 -38
-857 121 -1091 435 -211 283 -262 659 -136 1005 105 287 380 540 689 633 74
22 111 31 230 51 64 11 408 -2 475 -18z"/>
</g>
</svg>
